<svg width="220" height="229" viewBox="0 0 220 229" fill="none" xmlns="http://www.w3.org/2000/svg">
<path d="M158.968 78.2383L109.882 102.906L60.7967 78.2383L0 199.582L37.8733 195.845L57.3083 228.486L109.882 123.836L162.457 228.486L181.892 195.845L219.765 199.582L158.968 78.2383Z" fill="#B20F22"/>
<path d="M109.883 160.463C154.193 160.463 190.114 124.542 190.114 80.2317C190.114 35.9209 154.193 0 109.883 0C65.5718 0 29.6509 35.9209 29.6509 80.2317C29.6509 124.542 65.5718 160.463 109.883 160.463Z" fill="#EF9A46"/>
<path d="M109.882 143.271C144.698 143.271 172.922 115.047 172.922 80.2317C172.922 45.4161 144.698 17.1925 109.882 17.1925C75.0669 17.1925 46.8433 45.4161 46.8433 80.2317C46.8433 115.047 75.0669 143.271 109.882 143.271Z" fill="#CD7F32"/>
<path d="M112.872 42.3584L123.337 63.2884C123.836 64.285 124.832 65.0325 125.829 65.2817L149.002 68.77C151.742 69.2684 152.988 72.5075 150.995 74.5009L134.301 90.9459C133.553 91.6934 133.055 92.9392 133.304 93.9359L137.291 117.108C137.789 119.849 134.799 122.092 132.307 120.597L111.627 109.633C110.63 109.135 109.384 109.135 108.387 109.633L87.4575 120.597C84.9658 121.843 81.9758 119.849 82.4741 117.108L86.4608 93.9359C86.71 92.9392 86.2116 91.6934 85.4641 90.9459L68.77 74.5009C66.7766 72.5075 67.7733 69.0192 70.7633 68.77L93.9358 65.2817C94.9325 65.0325 95.9291 64.5342 96.4275 63.2884L106.892 42.3584C108.138 39.8667 111.627 39.8667 112.872 42.3584Z" fill="white"/>
</svg>
