<svg width="186" height="194" viewBox="0 0 186 194" fill="none" xmlns="http://www.w3.org/2000/svg">
<path d="M134.37 66.7599L92.9999 87.5499L51.6299 66.7599L0.389893 169.03L32.3099 165.88L48.6899 193.39L92.9999 105.19L137.31 193.39L153.69 165.88L185.61 169.03L134.37 66.7599Z" fill="#B20F22"/>
<path d="M92.9999 136.06C130.345 136.06 160.62 105.785 160.62 68.4399C160.62 31.0945 130.345 0.819946 92.9999 0.819946C55.6544 0.819946 25.3799 31.0945 25.3799 68.4399C25.3799 105.785 55.6544 136.06 92.9999 136.06Z" fill="#FFC54D"/>
<path d="M92.9999 121.57C122.343 121.57 146.13 97.7828 146.13 68.4399C146.13 39.097 122.343 15.3099 92.9999 15.3099C63.657 15.3099 39.8699 39.097 39.8699 68.4399C39.8699 97.7828 63.657 121.57 92.9999 121.57Z" fill="#E8B04B"/>
<path d="M95.5199 36.5199L104.34 54.1599C104.76 54.9999 105.6 55.6299 106.44 55.8399L125.97 58.7799C128.28 59.1999 129.33 61.9299 127.65 63.6099L113.58 77.4699C112.95 78.0999 112.53 79.15 112.74 79.99L116.1 99.52C116.52 101.83 114 103.72 111.9 102.46L94.4699 93.22C93.6299 92.8 92.5799 92.8 91.7399 93.22L74.0999 102.46C71.9999 103.51 69.4799 101.83 69.8999 99.52L73.2599 79.99C73.4699 79.15 73.0499 78.0999 72.4199 77.4699L58.3499 63.6099C56.6699 61.9299 57.5099 58.9899 60.0299 58.7799L79.5599 55.8399C80.3999 55.6299 81.2399 55.2099 81.6599 54.1599L90.4799 36.5199C91.5299 34.4199 94.4699 34.4199 95.5199 36.5199Z" fill="white"/>
</svg>
