<svg width="280" height="88" viewBox="0 0 280 88" fill="none" xmlns="http://www.w3.org/2000/svg">
<g clip-path="url(#clip0_12_53)">
<path d="M20.2666 24.6871C26.1569 9.59113 40.5954 -0.200873 56.3988 0.00312745C74.6444 0.207127 88.0773 14.8951 85.2758 31.9631C83.0489 45.7671 74.9318 55.4911 61.4271 61.2031C59.7031 61.9511 58.3383 62.1551 56.6861 60.5911C45.0491 49.3711 33.2684 38.2871 21.5596 27.1351C20.9131 26.5231 20.6258 25.6391 20.2666 24.6871Z" fill="#B20F22"/>
<path d="M177.555 87.9673C171.052 87.9673 171.052 87.9673 171.052 82.0403C171.052 74.7705 171.101 67.547 171.002 60.2772C170.953 58.3324 171.643 57.7767 173.663 57.823C181.693 57.9156 189.723 57.8693 197.803 57.8693C205.193 57.823 209.331 54.628 210.908 47.8212C212.681 39.9494 207.459 30.5496 196.867 31.2442C192.039 31.522 187.211 31.2905 182.334 31.2905C181.545 31.2905 180.757 31.2905 179.722 31.2905C179.722 37.4953 179.722 43.4686 179.722 49.5808C176.816 49.5808 174.155 49.5808 171.347 49.5808C171.249 49.164 171.052 48.701 171.052 48.2843C171.052 40.8755 171.052 33.4668 171.002 26.058C171.002 24.7615 171.347 24.0669 172.924 24.0669C181.89 24.1133 190.807 23.8354 199.774 24.1596C214.455 24.7615 224.012 39.579 218.347 52.6369C214.8 60.8328 208.149 65.0465 198.69 65.0465C192.482 65.0465 186.225 65.0465 179.673 65.0465C179.673 66.945 179.673 68.6583 179.673 70.4179C179.673 75.6503 179.624 80.929 179.722 86.1614C179.722 87.5506 179.279 88.1525 177.555 87.9673Z" fill="#FBFDFE"/>
<path d="M109 58.7887C109.87 58.3259 110.692 57.9094 111.513 57.9094C119.489 57.8632 127.464 57.9094 135.439 57.8632C142.254 57.8169 146.217 54.8088 147.909 48.515C149.552 42.4525 147.232 36.0661 142.109 33.058C140.659 32.1788 138.871 31.4383 137.179 31.392C130.75 31.2069 124.322 31.2995 117.507 31.2995C117.507 37.4082 117.507 43.4244 117.507 49.5331C114.51 49.5331 111.9 49.5331 109.145 49.5331C109.145 41.0642 109.145 32.6878 109.145 24.2652C109.483 24.1726 109.773 24.0801 110.112 24.0801C119.199 24.0801 128.334 23.8487 137.42 24.1726C147.232 24.5428 154.966 31.5309 156.706 41.2956C158.688 52.5412 150.519 65.4528 136.357 65.0826C130.944 64.9437 125.579 65.0363 120.165 65.0363C119.392 65.0363 118.57 65.0363 117.458 65.0363C117.458 68.1369 117.458 71.0525 117.458 73.968C117.458 77.9016 117.362 81.8353 117.507 85.7689C117.555 87.5275 116.927 88.0828 115.138 87.9903C113.157 87.8514 111.175 87.944 109 87.944C109 78.0867 109 68.5534 109 58.7887Z" fill="#FCFDFE"/>
<path d="M238.987 73C237.221 73 235.662 73 234 73C234 56.6339 234 40.501 234 24.0416C236.545 24.0416 239.091 23.9017 241.636 24.1349C242.156 24.1815 242.935 25.5337 242.935 26.3263C243.039 33.6002 242.987 40.9206 242.987 48.1944C242.987 55.3284 242.987 62.4623 242.987 69.5962C242.987 73 242.987 73 238.987 73Z" fill="#F8FBFD"/>
<path d="M268.004 81.0447C272.053 81.0447 275.858 81.0447 279.956 81.0447C279.956 83.0555 280.103 84.9323 279.859 86.7196C279.81 87.2112 278.59 87.8814 277.859 87.9261C274.2 88.0602 270.541 87.9708 266.931 87.9708C256.929 87.9708 246.977 87.9708 236.976 87.9708C236 87.9708 235.073 87.9708 234 87.9708C234 85.6025 234 83.4577 234 81C245.27 81.0447 256.539 81.0447 268.004 81.0447Z" fill="#F9FBFD"/>
<path d="M2.16475 75.4831C-0.852254 73.1711 -0.564921 71.1991 2.09291 68.8871C12.2214 59.8431 22.2781 50.5951 32.1911 41.6191C35.3517 44.6791 38.2969 47.5351 41.4576 50.6631C38.3687 53.6551 34.9207 57.0551 31.4727 60.4551C25.3669 66.5071 19.2611 72.5591 13.1552 78.5431C9.70724 81.9431 9.20441 81.9431 5.68458 78.6791C4.53525 77.7271 3.38591 76.7071 2.16475 75.4831Z" fill="#A0794E"/>
<path d="M78.0733 84.14C71.3928 85.16 66.6518 83.052 64.4968 78.292C62.4855 73.804 63.9221 68.364 68.0885 65.576C71.8238 63.06 75.8465 62.72 79.8691 64.692C83.9636 66.664 85.975 70.064 85.8313 74.348C85.6876 79.108 83.1016 82.372 78.0733 84.14Z" fill="#FCFDFE"/>
<path d="M48.6409 63.9231C43.828 63.2431 39.3025 62.6311 34.777 61.9511C34.7052 61.5431 34.6334 61.1351 34.5615 60.7271C37.7222 58.0751 40.9547 55.3551 43.8999 52.8391C47.2042 55.9671 50.8677 59.3671 54.7467 63.0391C52.8072 63.3791 50.8677 63.6511 48.6409 63.9231Z" fill="#C5AC8D"/>
<path d="M26.3007 43.4551C24.5049 45.0871 22.9245 46.5151 20.985 48.2151C17.968 41.7551 17.106 35.6351 18.9019 29.3791C22.4935 32.8471 26.0852 36.3151 30.3234 40.3951C29.4614 41.0751 27.9529 42.1631 26.3007 43.4551Z" fill="#C5AC8D"/>
</g>
<defs>
<clipPath id="clip0_12_53">
<rect width="280" height="88" fill="white"/>
</clipPath>
</defs>
</svg>
