<svg width="195" height="203" viewBox="0 0 195 203" fill="none" xmlns="http://www.w3.org/2000/svg">
<path d="M141.004 69.7L97.5 91.5625L53.9959 69.7L0.112549 177.246L33.6792 173.933L50.9042 202.862L97.5 110.112L144.096 202.862L161.321 173.933L194.888 177.246L141.004 69.7Z" fill="#B20F22"/>
<path d="M97.4999 142.575C136.772 142.575 168.608 110.739 168.608 71.4666C168.608 32.1946 136.772 0.358276 97.4999 0.358276C58.2279 0.358276 26.3916 32.1946 26.3916 71.4666C26.3916 110.739 58.2279 142.575 97.4999 142.575Z" fill="#EDEDED"/>
<path d="M97.5 127.337C128.357 127.337 153.371 102.323 153.371 71.4667C153.371 40.6101 128.357 15.5958 97.5 15.5958C66.6434 15.5958 41.6292 40.6101 41.6292 71.4667C41.6292 102.323 66.6434 127.337 97.5 127.337Z" fill="#BCBCBC"/>
<path d="M100.15 37.8999L109.425 56.4499C109.867 57.3332 110.75 57.9957 111.633 58.2166L132.171 61.3082C134.6 61.7499 135.704 64.6207 133.937 66.3874L119.142 80.9624C118.479 81.6249 118.037 82.7291 118.258 83.6124L121.792 104.15C122.233 106.579 119.583 108.567 117.375 107.242L99.0458 97.5249C98.1624 97.0832 97.0583 97.0832 96.1749 97.5249L77.6249 107.242C75.4166 108.346 72.7666 106.579 73.2083 104.15L76.7416 83.6124C76.9624 82.7291 76.5208 81.6249 75.8583 80.9624L61.0624 66.3874C59.2958 64.6207 60.1791 61.5291 62.8291 61.3082L83.3666 58.2166C84.2499 57.9957 85.1333 57.5541 85.5749 56.4499L94.8499 37.8999C95.9541 35.6916 99.0458 35.6916 100.15 37.8999Z" fill="white"/>
</svg>
